<?xml version="1.0"?>
<svg xmlns="http://www.w3.org/2000/svg" width="137" height="102" viewBox="0 0 137 102">
  <g fill="#fff" id="gmail-logo">
   <polygon points="56.81199645996094,62.688995361328125 30.095993041992188,88.71701049804688 61.798004150390625,65.9840087890625 "/>
   <polygon points="115.76199340820312,1.3529968857765198 115.76199340820312,5.9720001220703125 68.57199096679688,40.178009033203125 21.285995483398438,5.9720001220703125 21.285995483398438,1.3529968857765198 1.3549957573413849,1.3529968857765198 1.3549957573413849,100.32598876953125 21.285995483398438,100.32598876953125 21.285995483398438,35.3380126953125 10.235000610351562,25.8179931640625 21.285995483398438,33.808013916015625 21.285995483398438,33.77099609375 30.69500732421875,40.613006591796875 42.904998779296875,49.441009521484375 42.89900207519531,49.488006591796875 68.46200561523438,68.00601196289062 68.46200561523438,68.09600830078125 68.50900268554688,68.13101196289062 68.57199096679688,68.08599853515625 68.58499145507812,68.09600830078125 68.58499145507812,68.07598876953125 94.14801025390625,49.488006591796875 94.14300537109375,49.441009521484375 106.35198974609375,40.613006591796875 115.76199340820312,33.77099609375 115.76199340820312,33.808013916015625 126.81298828125,25.8179931640625 115.76199340820312,35.3380126953125 115.76199340820312,100.32598876953125 135.69100952148438,100.32598876953125 135.69100952148438,1.3529968857765198 "/>
   <polygon points="80.43600463867188,62.688995361328125 107.14999389648438,88.71701049804688 75.45098876953125,65.9840087890625 "/>
   <path d="m135.664001,100.187988l-134.574005,0l0,-99.080002l134.574005,0l0,99.080002zm-5,-94.079987l-124.574005,0l0,89.079987l124.574005,0l0,-89.079987l0,0z"/>
  </g>
</svg>